<mxfile host="app.diagrams.net" modified="2021-03-01T14:08:13.121Z" agent="5.0 (Windows NT 10.0; Win64; x64) AppleWebKit/537.36 (KHTML, like Gecko) Chrome/85.0.4183.83 Safari/537.36" etag="Dl5hwJlm47yemZKQVXmj" version="14.4.3" type="github">
  <diagram id="quxWJktvi151sR6Y2cwX" name="Page-1">
    <mxGraphModel dx="788" dy="363" grid="1" gridSize="10" guides="1" tooltips="1" connect="1" arrows="1" fold="1" page="1" pageScale="1" pageWidth="827" pageHeight="1169" math="0" shadow="0">
      <root>
        <mxCell id="0" />
        <mxCell id="1" parent="0" />
        <mxCell id="fLKo_QXHveJyoZlfC3Ls-1" value="前端界面&lt;br&gt;（Vue框架开发）" style="rounded=0;whiteSpace=wrap;html=1;" vertex="1" parent="1">
          <mxGeometry x="110" y="50" width="120" height="60" as="geometry" />
        </mxCell>
        <mxCell id="fLKo_QXHveJyoZlfC3Ls-2" value="Nnginx反向代理" style="rounded=0;whiteSpace=wrap;html=1;" vertex="1" parent="1">
          <mxGeometry x="110" y="160" width="120" height="30" as="geometry" />
        </mxCell>
        <mxCell id="fLKo_QXHveJyoZlfC3Ls-3" value="" style="endArrow=classic;startArrow=classic;html=1;entryX=0.5;entryY=1;entryDx=0;entryDy=0;" edge="1" parent="1" target="fLKo_QXHveJyoZlfC3Ls-1">
          <mxGeometry width="50" height="50" relative="1" as="geometry">
            <mxPoint x="169.5" y="160" as="sourcePoint" />
            <mxPoint x="169.89999999999998" y="120" as="targetPoint" />
          </mxGeometry>
        </mxCell>
        <mxCell id="fLKo_QXHveJyoZlfC3Ls-5" value="json数据通信交互" style="text;html=1;strokeColor=none;fillColor=none;align=center;verticalAlign=middle;whiteSpace=wrap;rounded=0;" vertex="1" parent="1">
          <mxGeometry x="200" y="130" width="100" height="20" as="geometry" />
        </mxCell>
        <mxCell id="fLKo_QXHveJyoZlfC3Ls-6" value="" style="rounded=0;whiteSpace=wrap;html=1;" vertex="1" parent="1">
          <mxGeometry x="70" y="210" width="310" height="170" as="geometry" />
        </mxCell>
        <mxCell id="fLKo_QXHveJyoZlfC3Ls-7" value="Fastjson&lt;br&gt;数据解析" style="rounded=0;whiteSpace=wrap;html=1;" vertex="1" parent="1">
          <mxGeometry x="120" y="240" width="120" height="60" as="geometry" />
        </mxCell>
        <mxCell id="fLKo_QXHveJyoZlfC3Ls-8" value="Druid" style="rounded=0;whiteSpace=wrap;html=1;" vertex="1" parent="1">
          <mxGeometry x="250" y="250" width="80" height="40" as="geometry" />
        </mxCell>
        <mxCell id="fLKo_QXHveJyoZlfC3Ls-9" value="WebService1" style="rounded=1;whiteSpace=wrap;html=1;" vertex="1" parent="1">
          <mxGeometry x="110" y="310" width="80" height="50" as="geometry" />
        </mxCell>
        <mxCell id="fLKo_QXHveJyoZlfC3Ls-10" value="WebService2" style="rounded=1;whiteSpace=wrap;html=1;" vertex="1" parent="1">
          <mxGeometry x="200" y="310" width="100" height="50" as="geometry" />
        </mxCell>
        <mxCell id="fLKo_QXHveJyoZlfC3Ls-11" value="&lt;font style=&quot;font-size: 24px&quot;&gt;……&lt;/font&gt;" style="text;html=1;strokeColor=none;fillColor=none;align=center;verticalAlign=middle;whiteSpace=wrap;rounded=0;" vertex="1" parent="1">
          <mxGeometry x="310" y="318" width="40" height="20" as="geometry" />
        </mxCell>
      </root>
    </mxGraphModel>
  </diagram>
</mxfile>
